<svg xmlns="http://www.w3.org/2000/svg" width="144" height="88" viewBox="0 0 144 88" fill="none" aria-hidden="true">
  <desc>Верхний ряд содержит размеры 8, 3, 6, 3. Стрелка сортировки ведёт к нижнему ряду 3, 3, 6, 8; первые два маленьких размера выделены как начало отбора.</desc>
  <g stroke="#8f969d" stroke-width="1">
    <rect x="15.5" y="6.5" width="24" height="24"/>
    <rect x="44.5" y="6.5" width="24" height="24"/>
    <rect x="73.5" y="6.5" width="24" height="24"/>
    <rect x="102.5" y="6.5" width="24" height="24"/>
    <rect x="15.5" y="55.5" width="24" height="24" fill="#e6ecf1"/>
    <rect x="44.5" y="55.5" width="24" height="24" fill="#e6ecf1"/>
    <rect x="73.5" y="55.5" width="24" height="24"/>
    <rect x="102.5" y="55.5" width="24" height="24"/>
  </g>
  <path d="M71 35v14m-5-5 5 5 5-5" stroke="#090b0c" stroke-width="1.5" stroke-linecap="round" stroke-linejoin="round"/>
  <g fill="#090b0c" font-family="Georgia, 'Times New Roman', serif" font-size="18" text-anchor="middle">
    <text x="27.5" y="25">8</text><text x="56.5" y="25">3</text><text x="85.5" y="25">6</text><text x="114.5" y="25">3</text>
    <text x="27.5" y="74">3</text><text x="56.5" y="74">3</text><text x="85.5" y="74">6</text><text x="114.5" y="74">8</text>
  </g>
  <path d="M15 83h54" stroke="#090b0c" stroke-width="1.3" stroke-linecap="round"/>
</svg>
